<?xml version="1.0" encoding="UTF-8"?>
<svg width="99px" height="68px" viewBox="0 0 99 68" version="1.1" xmlns="http://www.w3.org/2000/svg" xmlns:xlink="http://www.w3.org/1999/xlink">
    <title>238C6945-B5CB-4872-A237-8A4F54583763</title>
    <g id="Page-1" stroke="none" stroke-width="1" fill="none" fill-rule="evenodd">
        <g id="OTP-2" transform="translate(-224.000000, -36.000000)" fill="#E0EAFF">
            <path d="M295.922397,49.6003264 C294.114407,49.6003264 292.349465,49.7822733 290.639754,50.1216899 C287.070884,41.8149575 278.848026,36 269.269581,36 C256.417913,36 245.999639,46.4648021 245.999639,59.3748725 C245.999639,59.8073024 246.013447,60.2356527 246.036189,60.6615553 C245.883492,60.6582916 245.730796,60.6501326 245.577288,60.6501326 C233.660478,60.6501326 224,70.3545109 224,82.3246583 C224,94.2956217 233.660478,104 245.577288,104 C245.717801,104 245.858314,103.991841 245.999639,103.988577 L245.999639,104 L295.922397,104 C310.876888,104 323,91.8217967 323,76.8001632 C323,61.7777138 310.876888,49.6003264 295.922397,49.6003264" id="Fill-4-Copy-3"></path>
        </g>
    </g>
</svg>